#!OML:ASF H:\Dans Jumps\Project 1\Capture day 1\Session 1\subject.ASF
:FULLY-SPECIFIED
:DEGREES
426
root 0.564896 17.7067 6.15685 5.1123 2.2399 -2.05772
lowerback -0.496488 -0.0599123 0.824753
upperback 2.49401 -0.13847 1.7313
thorax 2.84017 -0.0717364 1.31173
lowerneck -12.5415 -0.804767 -2.06262
upperneck 27.9857 -0.96294 1.15721
head 11.1329 -0.50735 0.651047
rclavicle 4.17448e-015 -1.59028e-015
rhumerus -25.5093 -22.9176 -79.389
rradius 19.1473
rwrist 43.3266
rhand -19.156 -26.4756
rfingers 7.12502
rthumb 7.15454 -56.3346
lclavicle 4.17448e-015 -1.59028e-015
lhumerus -19.5799 3.86571 90.0042
lradius 14.3072
lwrist 0.110344
lhand -26.1614 -6.40001
lfingers 7.12502
lthumb 0.389896 23.5794
rfemur -15.0721 -2.23702 21.0626
rtibia 21.3899
rfoot -10.5945 -0.341106
rtoes 18.8817
lfemur -14.1516 5.26617 -16.6833
ltibia 20.4027
lfoot -8.96011 2.60983
ltoes -3.97734
427
root 0.570399 17.7092 6.16863 5.15557 2.20034 -2.02262
lowerback -0.535587 -0.0837814 0.774102
upperback 2.47841 -0.169158 1.70622
thorax 2.84665 -0.0878997 1.31337
lowerneck -12.5676 -0.780831 -2.07194
upperneck 27.8426 -0.927561 1.16423
head 11.0831 -0.491342 0.659158
rclavicle -4.12478e-015 4.96962e-015
rhumerus -25.6719 -22.8785 -79.3178
rradius 19.1865
rwrist 43.2561
rhand -19.0887 -26.4588
rfingers 7.12502
rthumb 7.21955 -56.3157
lclavicle -4.12478e-015 4.96962e-015
lhumerus -19.4877 3.91656 89.9697
lradius 14.261
lwrist -0.0845522
lhand -26.1254 -6.33024
lfingers 7.12502
lthumb 0.424585 23.6491
rfemur -15.0501 -2.20183 21.0084
rtibia 21.3409
rfoot -10.6057 -0.367101
rtoes 18.7821
lfemur -14.0825 5.28932 -16.7416
ltibia 20.2819
lfoot -8.94321 2.61727
ltoes -3.95315
428
root 0.575972 17.7115 6.18021 5.19299 2.16518 -1.99995
lowerback -0.57024 -0.108665 0.740476
upperback 2.46475 -0.201522 1.68353
thorax 2.85265 -0.104535 1.30787
lowerneck -12.6023 -0.756464 -2.0814
upperneck 27.71 -0.891562 1.17173
head 11.0392 -0.474969 0.667553
rclavicle -1.88845e-015 -2.70347e-014
rhumerus -25.8165 -22.8135 -79.2675
rradius 19.2314
rwrist 43.1354
rhand -19.025 -26.4348
rfingers 7.12502
rthumb 7.281 -56.2896
lclavicle -1.88845e-015 -2.70347e-014
lhumerus -19.4011 3.97906 89.929
lradius 14.2156
lwrist -0.308345
lhand -26.0803 -6.26265
lfingers 7.12502
lthumb 0.46818 23.7166
rfemur -15.0204 -2.17885 20.9677
rtibia 21.2882
rfoot -10.6173 -0.384589
rtoes 18.682
lfemur -14.0168 5.31553 -16.7859
ltibia 20.176
lfoot -8.93328 2.61923
ltoes -3.93591
429
root 0.581502 17.7136 6.19153 5.22676 2.13006 -1.98567
lowerback -0.60102 -0.132926 0.717128
upperback 2.45115 -0.233221 1.66259
thorax 2.8565 -0.12062 1.2984
lowerneck -12.6413 -0.731056 -2.09053
upperneck 27.5873 -0.854797 1.18156
head 10.9999 -0.457904 0.676852
rclavicle 3.62782e-015 3.77691e-015
rhumerus -25.9505 -22.704 -79.2416
rradius 19.2966
rwrist 42.9447
rhand -18.9534 -26.4201
rfingers 7.12502
rthumb 7.35012 -56.2724
lclavicle 3.62782e-015 3.77691e-015
lhumerus -19.322 4.06503 89.88
lradius 14.1703
lwrist -0.566197
lhand -26.0302 -6.20848
lfingers 7.12502
lthumb 0.516558 23.7706
rfemur -14.9867 -2.15903 20.9361
rtibia 21.2325
rfoot -10.6284 -0.396951
rtoes 18.5967
lfemur -13.9553 5.34578 -16.8206
ltibia 20.0817
lfoot -8.93004 2.61821
ltoes -3.92033
430
root 0.586847 17.7155 6.20237 5.25955 2.09275 -1.97845
lowerback -0.626283 -0.156005 0.700244
upperback 2.43607 -0.263393 1.64378
thorax 2.85568 -0.135815 1.28752
lowerneck -12.6851 -0.703815 -2.10024
upperneck 27.4732 -0.815821 1.19351
head 10.9649 -0.439612 0.687317
rclavicle 8.34896e-015 -1.31198e-014
rhumerus -26.0732 -22.5671 -79.2342
rradius 19.3762
rwrist 42.7055
rhand -18.8794 -26.4155
rfingers 7.12502
rthumb 7.42156 -56.2653
lclavicle 8.34896e-015 -1.31198e-014
lhumerus -19.2437 4.17806 89.8233
lradius 14.1167
lwrist -0.85169
lhand -25.9777 -6.16504
lfingers 7.12502
lthumb 0.56726 23.814
rfemur -14.9544 -2.13323 20.9126
rtibia 21.1754
rfoot -10.6371 -0.411822
rtoes 18.5152
lfemur -13.9005 5.37962 -16.8466
ltibia 19.9964
lfoot -8.92652 2.61633
ltoes -3.90638
431
root 0.592245 17.7172 6.21312 5.29009 2.05685 -1.97235
lowerback -0.656291 -0.178988 0.686537
upperback 2.42475 -0.293651 1.62523
thorax 2.8614 -0.150989 1.27511
lowerneck -12.7335 -0.675901 -2.10655
upperneck 27.365 -0.775912 1.20285
head 10.933 -0.420827 0.69638
rclavicle 2.5842e-015 -4.57205e-015
rhumerus -26.1762 -22.4255 -79.2401
rradius 19.4602
rwrist 42.4446
rhand -18.8121 -26.4178
rfingers 7.12502
rthumb 7.48653 -56.2653
lclavicle 2.5842e-015 -4.57205e-015
lhumerus -19.1614 4.31312 89.7613
lradius 14.0568
lwrist -1.15236
lhand -25.9303 -6.12028
lfingers 7.12502
lthumb 0.613097 23.8586
rfemur -14.9203 -2.11343 20.8898
rtibia 21.119
rfoot -10.6468 -0.420445
rtoes 18.4445
lfemur -13.8466 5.41439 -16.8719
ltibia 19.9163
lfoot -8.92454 2.61318
ltoes -3.8948
432
root 0.597759 17.7189 6.22366 5.31961 2.02404 -1.96228
lowerback -0.689661 -0.202263 0.671049
upperback 2.41596 -0.324343 1.60631
thorax 2.87162 -0.16642 1.26328
lowerneck -12.7867 -0.647036 -2.10887
upperneck 27.2632 -0.73382 1.20607
head 10.9045 -0.401345 0.702841
rclavicle -3.23025e-015 8.34896e-015
rhumerus -26.2592 -22.2914 -79.2534
rradius 19.5447
rwrist 42.1792
rhand -18.7525 -26.426
rfingers 7.12502
rthumb 7.54401 -56.2714
lclavicle -3.23025e-015 8.34896e-015
lhumerus -19.0708 4.47527 89.6952
lradius 13.9862
lwrist -1.46823
lhand -25.8942 -6.10184
lfingers 7.12502
lthumb 0.647937 23.8769
rfemur -14.8856 -2.10414 20.862
rtibia 21.0628
rfoot -10.6569 -0.420376
rtoes 18.3785
lfemur -13.7949 5.44857 -16.9027
ltibia 19.8406
lfoot -8.92213 2.60794
ltoes -3.88843
433
root 0.603377 17.7207 6.23391 5.347 1.99757 -1.94892
lowerback -0.722957 -0.226584 0.654379
upperback 2.40844 -0.356411 1.58751
thorax 2.88316 -0.182568 1.25217
lowerneck -12.8462 -0.617985 -2.10616
upperneck 27.1715 -0.690681 1.20243
head 10.881 -0.381677 0.706143
rclavicle 4.27387e-015 -2.32578e-014
rhumerus -26.3232 -22.1735 -79.2701
rradius 19.6228
rwrist 41.925
rhand -18.7066 -26.4399
rfingers 7.12502
rthumb 7.58832 -56.2838
lclavicle 4.27387e-015 -2.32578e-014
lhumerus -18.9742 4.66416 89.6261
lradius 13.9045
lwrist -1.79259
lhand -25.8736 -6.07859
lfingers 7.12502
lthumb 0.667787 23.9001
rfemur -14.8484 -2.10469 20.83
rtibia 21.0058
rfoot -10.6645 -0.415208
rtoes 18.3242
lfemur -13.7441 5.47834 -16.938
ltibia 19.7685
lfoot -8.92038 2.6013
ltoes -3.87135
